<?xml version="1.0" encoding="UTF-8" standalone="no"?>
<svg
   xmlns:dc="http://purl.org/dc/elements/1.1/"
   xmlns:cc="http://creativecommons.org/ns#"
   xmlns:rdf="http://www.w3.org/1999/02/22-rdf-syntax-ns#"
   xmlns:svg="http://www.w3.org/2000/svg"
   xmlns="http://www.w3.org/2000/svg"
   xmlns:sodipodi="http://sodipodi.sourceforge.net/DTD/sodipodi-0.dtd"
   xmlns:inkscape="http://www.inkscape.org/namespaces/inkscape"
   viewBox="0 0 512 512"
   id="svg2"
   version="1.1"
   inkscape:version="0.48.4 r9939"
   width="100%"
   height="100%"
   sodipodi:docname="vintage-robot.svg">
  <metadata
     id="metadata38">
    <rdf:RDF>
      <cc:Work
         rdf:about="">
        <dc:format>image/svg+xml</dc:format>
        <dc:type
           rdf:resource="http://purl.org/dc/dcmitype/StillImage" />
        <dc:title></dc:title>
      </cc:Work>
    </rdf:RDF>
  </metadata>
  <defs
     id="defs36" />
  <rect
     style="fill:#000000;stroke:#000000;stroke-width:1.77165353000000003;stroke-linejoin:round;stroke-miterlimit:4;stroke-opacity:1;stroke-dasharray:none"
     id="rect3019"
     width="512"
     height="512"
     x="0"
     y="0"
     ry="59.269176" />
  <path
     style="fill:#ffffff;stroke:#000000;stroke-width:18.68857956"
     inkscape:connector-curvature="0"
     id="path8"
     d="m 367.10396,255.96411 h -59.12693 v 133.54486 h 59.12693 z" />
  <path
     style="fill:#ffffff;stroke:#000000;stroke-width:18.68857956"
     inkscape:connector-curvature="0"
     id="path10"
     d="m 225.40341,255.96411 h -59.12693 v 133.54486 h 59.12693 z" />
  <path
     style="fill:#ffffff;stroke:#000000;stroke-width:18.68857956"
     inkscape:connector-curvature="0"
     id="path12"
     d="m 420.76262,296.12961 c 0,-30.38203 -25.19782,-53.66426 -55.57984,-53.66426 v -59.41473 c 62.7114,0 113.07525,50.36198 113.07525,113.07899 z" />
  <path
     style="fill:none;stroke:#ffffff;stroke-width:18.68857956"
     inkscape:connector-curvature="0"
     id="path14"
     d="m 481.33043,321.51804 c 7.96321,-13.74732 3.23687,-31.32393 -10.55344,-39.26097 -13.7903,-7.93704 -31.42671,-3.23125 -39.38992,10.51981 -7.9632,13.75105 -3.23686,31.32579 10.55531,39.2647" />
  <path
     style="fill:#ffffff;stroke:#000000;stroke-width:18.68857956"
     inkscape:connector-curvature="0"
     id="path16"
     d="m 95.145879,296.12961 c 0,-30.38203 25.197811,-53.66426 55.579841,-53.66426 v -59.41473 c -62.711403,0 -113.075257,50.36198 -113.075257,113.07899 z" />
  <path
     style="fill:none;stroke:#ffffff;stroke-width:18.68857956"
     inkscape:connector-curvature="0"
     id="path18"
     d="m 34.57806,321.51804 c -7.963204,-13.74732 -3.236862,-31.32393 10.553441,-39.26097 13.790303,-7.93704 31.426716,-3.23125 39.38992,10.51981 7.963204,13.75105 3.236862,31.32579 -10.55531,39.2647" />
  <path
     style="fill:#ffffff;stroke:#000000;stroke-width:18.68942451"
     inkscape:connector-curvature="0"
     id="path20"
     d="m 181.01315,128.16048 c 0,43.74379 35.46392,79.20771 79.2077,79.20771 43.74379,0 79.20771,-35.46392 79.20771,-79.20771 0,-43.743777 -35.46392,-79.210727 -79.20771,-79.210727 -43.74378,0 -79.2077,35.463925 -79.2077,79.210727 z" />
  <path
     style="fill:#ffffff;stroke:#000000;stroke-width:18.68857956"
     inkscape:connector-curvature="0"
     id="path22"
     d="M 390.55066,121.4026 H 136.71302 v 212.86479 h 253.83764 z" />
  <path
     style="fill:none;stroke:#000000;stroke-width:18.68857956"
     inkscape:connector-curvature="0"
     id="path24"
     d="m 478.44305,264.51414 c -26.75831,-9.58911 -58.80549,2.71171 -69.00571,27.97306" />
  <path
     style="fill:none;stroke:#000000;stroke-width:18.68857956"
     inkscape:connector-curvature="0"
     id="path26"
     d="m 37.482266,264.51414 c 26.758308,-9.58911 58.805485,2.71171 69.005714,27.97306" />
  <path
     style="fill:#ffffff;stroke:#000000;stroke-width:18.68857956"
     inkscape:connector-curvature="0"
     id="path28"
     d="m 337.50499,383.60524 c -51.47209,0 -56.82636,49.07808 -58.23175,80.76644 h 116.46163 c -1.40538,-31.68836 -8.90324,-80.76644 -58.22988,-80.76644 z" />
  <path
     style="fill:#ffffff;stroke:#000000;stroke-width:18.68857956"
     inkscape:connector-curvature="0"
     id="path30"
     d="m 194.05706,383.60524 c 51.47208,0 56.82636,49.07808 58.23174,80.76644 H 135.82718 c 1.40538,-31.68836 8.90324,-80.76644 58.22988,-80.76644 z" />
  <g
     id="g4003"
     transform="matrix(0.32747577,0,0,0.32747577,403.7926,145.5699)">
    <path
       style="fill:#000000;stroke:#000000;stroke-width:20.98115349;stroke-opacity:1"
       inkscape:connector-curvature="0"
       d="M -427.99439,503.09164 V 250.22047"
       id="path3140" />
    <path
       style="fill:#000000"
       inkscape:connector-curvature="0"
       d="m -427.99439,464.55345 -143.33905,42.93584 v 14.84207 h 286.6802 v -14.84207 l -143.33905,-42.93584 z"
       id="path3136" />
    <path
       style="fill:#000000"
       inkscape:connector-curvature="0"
       d="m -282.7724,124.73974 h -290.43944 l 145.21972,165.04018 z"
       id="path3142" />
    <path
       style="fill:none;stroke:#000000;stroke-width:20.98182678;stroke-opacity:1"
       inkscape:connector-curvature="0"
       d="M -232.27052,67.201853 H -623.73638 L -428.00345,289.65301 z"
       id="path3138" />
    <path
       style="fill:#000000;stroke:#fffaff;stroke-width:20.98266792;stroke-opacity:1"
       inkscape:connector-curvature="0"
       d="m -324.17557,153.41471 c 0,24.38236 -19.75485,44.14878 -44.12292,44.14878 -24.36808,0 -44.12294,-19.76642 -44.12294,-44.14878 0,-24.38236 19.75486,-44.14878 44.12294,-44.14878 24.36807,0 44.12292,19.76642 44.12292,44.14878 z"
       id="path3144" />
    <path
       style="fill:#fffef9;fill-opacity:1;stroke:#000000;stroke-width:20.98115349;stroke-opacity:1"
       inkscape:connector-curvature="0"
       d="M -341.45342,110.37897 -274.73545,-9.4213276"
       id="path3146" />
    <path
       style="fill:#ffffff;fill-opacity:1"
       inkscape:connector-curvature="0"
       d="m -374.96819,142.56724 c 0,7.99097 -6.47476,14.46949 -14.46108,14.46949 -7.98633,0 -14.46107,-6.47852 -14.46107,-14.46949 0,-7.99097 6.47474,-14.46948 14.46107,-14.46948 7.98632,0 14.46108,6.47851 14.46108,14.46948 z"
       id="path3148" />
  </g>
</svg>
